<?xml version="1.0" encoding="iso-8859-1"?>
<!-- Generator: Adobe Illustrator 19.1.0, SVG Export Plug-In . SVG Version: 6.00 Build 0)  -->
<svg xmlns="http://www.w3.org/2000/svg" xmlns:xlink="http://www.w3.org/1999/xlink" version="1.1" id="Capa_1" x="0px" y="0px" viewBox="0 0 92.885 92.885" style="enable-background:new 0 0 92.885 92.885;" xml:space="preserve" width="512px" height="512px">
<path d="M76.559,21.027L65.818,28.62l-0.49-0.694c-1.295-1.831-3.315-2.971-5.69-3.208c-2.272-0.228-4.6,0.409-6.555,1.79  L11.947,55.585c-0.419,0.297-0.703,0.748-0.79,1.254c-0.087,0.506,0.031,1.027,0.327,1.446l4.12,5.829l-8.649,6.113l-3.437-4.863  C2.9,64.49,1.692,64.283,0.819,64.9c-0.873,0.618-1.081,1.826-0.464,2.699l9.111,12.889c0.378,0.534,0.976,0.819,1.583,0.819  c0.386,0,0.776-0.115,1.116-0.355c0.873-0.618,1.081-1.826,0.464-2.699L9.191,73.39l8.649-6.113l4.12,5.829  c0.378,0.534,0.976,0.819,1.583,0.819c0.386,0,0.776-0.115,1.116-0.355l41.135-29.077c1.954-1.382,3.33-3.364,3.874-5.582  c0.569-2.319,0.169-4.604-1.125-6.435l-0.49-0.694l10.741-7.592c0.873-0.618,1.081-1.826,0.464-2.7  C78.641,20.617,77.433,20.41,76.559,21.027z M24.006,69.289l-4.119-5.826c-0.001-0.001-0.001-0.002-0.002-0.003  c-0.001-0.001-0.002-0.002-0.002-0.003l-4.119-5.826l6.887-4.868l2.621,3.707c0.323,0.458,0.836,0.702,1.357,0.702  c0.331,0,0.666-0.099,0.956-0.305c0.749-0.529,0.927-1.565,0.397-2.313l-2.621-3.707l4.613-3.261l2.56,3.622  c0.324,0.458,0.836,0.702,1.357,0.702c0.331,0,0.666-0.099,0.956-0.304c0.749-0.53,0.927-1.565,0.398-2.314l-2.56-3.623l4.612-3.26  l2.5,3.537c0.324,0.458,0.836,0.702,1.357,0.702c0.331,0,0.666-0.099,0.956-0.304c0.749-0.53,0.927-1.565,0.398-2.314l-2.5-3.537  l6.542-4.624l8.241,11.658L24.006,69.289z M89.476,24.929c0.825,0.876,0.784,2.256-0.092,3.081  c-0.876,0.825-2.256,0.784-3.081-0.092h0l0,0c-1.194-1.267-1.195-2.987-1.77-4.624c-0.095-0.27,0.169-0.518,0.432-0.407  C86.566,23.557,88.282,23.661,89.476,24.929z M82.667,13.528c-0.259,1.273-1.306,2.013-2.057,3.068  c-0.124,0.174-0.388,0.12-0.434-0.088c-0.279-1.264-0.954-2.355-0.696-3.627c0.179-0.88,1.037-1.448,1.917-1.269  C82.278,11.789,82.846,12.648,82.667,13.528z M90.257,20.711L90.257,20.711c-2.534,0.479-4.681-0.889-7.182-1.478  c-0.412-0.097-0.512-0.623-0.164-0.864c2.113-1.462,3.611-3.521,6.145-4.001l0,0l0,0c1.751-0.332,3.44,0.819,3.772,2.571  C93.16,18.691,92.008,20.379,90.257,20.711z" fill="#009688"/>
<g>
</g>
<g>
</g>
<g>
</g>
<g>
</g>
<g>
</g>
<g>
</g>
<g>
</g>
<g>
</g>
<g>
</g>
<g>
</g>
<g>
</g>
<g>
</g>
<g>
</g>
<g>
</g>
<g>
</g>
</svg>
